<svg width="48" height="48" viewBox="0 0 48 48" fill="none" xmlns="http://www.w3.org/2000/svg">
<path d="M6.36377 24.2858C6.36377 19.5987 8.22571 15.1035 11.54 11.7893C14.8543 8.47498 19.3494 6.61304 24.0365 6.61304M41.7092 24.2858C41.7092 28.9729 39.8473 33.468 36.533 36.7823C33.2187 40.0965 28.7236 41.9585 24.0365 41.9585L41.7092 24.2858ZM41.7092 24.2858C41.7092 19.5987 39.8473 15.1035 36.533 11.7893C33.2187 8.47498 28.7236 6.61304 24.0365 6.61304L41.7092 24.2858ZM41.7092 24.2858H6.36377H41.7092ZM24.0365 41.9585C19.3494 41.9585 14.8543 40.0965 11.54 36.7823C8.22571 33.468 6.36377 28.9729 6.36377 24.2858L24.0365 41.9585ZM24.0365 41.9585C27.2902 41.9585 29.9274 34.045 29.9274 24.2858C29.9274 14.5265 27.2902 6.61304 24.0365 6.61304V41.9585ZM24.0365 41.9585C20.7827 41.9585 18.1456 34.045 18.1456 24.2858C18.1456 14.5265 20.7827 6.61304 24.0365 6.61304V41.9585Z" stroke="white" stroke-width="3.92727" stroke-linecap="round" stroke-linejoin="round"/>
</svg>
