<svg width="48" height="48" viewBox="0 0 48 48" fill="none" xmlns="http://www.w3.org/2000/svg">
<path d="M19.011 34.1039H28.187H19.011ZM23.6 6.61304V8.57667V6.61304ZM36.0966 11.7892L34.7083 13.1775L36.0966 11.7892ZM41.2727 24.2858H39.3091H41.2727ZM7.89088 24.2858H5.92725H7.89088ZM12.4917 13.1775L11.1034 11.7892L12.4917 13.1775ZM16.6566 31.2292C15.2837 29.856 14.3489 28.1065 13.9703 26.2021C13.5916 24.2976 13.7862 22.3236 14.5294 20.5297C15.2726 18.7359 16.531 17.2026 18.1456 16.1239C19.7601 15.0452 21.6582 14.4694 23.6 14.4694C25.5417 14.4694 27.4399 15.0452 29.0544 16.1239C30.6689 17.2026 31.9274 18.7359 32.6705 20.5297C33.4137 22.3236 33.6083 24.2976 33.2297 26.2021C32.8511 28.1065 31.9162 29.856 30.5434 31.2292L29.4673 32.3033C28.8521 32.9186 28.3642 33.649 28.0313 34.4529C27.6984 35.2568 27.5271 36.1184 27.5272 36.9885V38.0312C27.5272 39.0728 27.1135 40.0717 26.377 40.8082C25.6405 41.5447 24.6415 41.9585 23.6 41.9585C22.5584 41.9585 21.5595 41.5447 20.823 40.8082C20.0865 40.0717 19.6727 39.0728 19.6727 38.0312V36.9885C19.6727 35.2311 18.9736 33.5443 17.7326 32.3033L16.6566 31.2292Z" stroke="white" stroke-width="3.92727" stroke-linecap="round" stroke-linejoin="round"/>
</svg>
