<svg width="48" height="48" viewBox="0 0 48 48" fill="none" xmlns="http://www.w3.org/2000/svg">
<path d="M23.5997 44.0129V20.4493M15.7452 32.2311C13.2965 32.2327 10.9355 31.3193 9.12554 29.6699C7.31559 28.0206 6.1873 25.7544 5.96206 23.316C5.73681 20.8777 6.43087 18.4432 7.90805 16.4902C9.38523 14.5372 11.5389 13.2067 13.9465 12.7597C14.3694 10.5087 15.5656 8.47629 17.3283 7.01389C19.091 5.5515 21.3094 4.7511 23.5997 4.7511C25.8901 4.7511 28.1084 5.5515 29.8711 7.01389C31.6339 8.47629 32.8301 10.5087 33.253 12.7597C35.6525 13.2157 37.796 14.5495 39.2653 16.5006C40.7346 18.4518 41.4241 20.8804 41.1995 23.3125C40.9748 25.7447 39.852 28.0059 38.0502 29.6548C36.2483 31.3038 33.8968 32.2223 31.4543 32.2311H15.7452ZM17.7088 38.122L23.5997 44.0129L17.7088 38.122ZM23.5997 44.0129L29.4906 38.122L23.5997 44.0129Z" stroke="white" stroke-width="3.92727" stroke-linecap="round" stroke-linejoin="round"/>
</svg>
