<svg width="62" height="62" viewBox="0 0 62 62" fill="none" xmlns="http://www.w3.org/2000/svg">
<g id="noto:building-construction">
<path id="Vector" d="M3.32959 14.5803L19.5923 6.82861C19.5923 6.82861 25.0514 8.04175 35.6878 10.6543C48.0723 13.6967 50.5702 14.8047 50.5702 14.8047L46.84 15.8316L43.8072 14.714L19.64 8.93011L6.6681 14.948L3.82153 15.3683L3.32959 14.5803ZM4.61437 23.1725V32.0895C4.61437 32.3809 4.81496 32.6388 5.19228 32.6674C5.56959 32.6961 10.532 32.6101 10.8185 32.6388C11.1051 32.6674 11.4251 32.4095 11.4251 31.8889V23.2059C11.4251 23.2059 9.69616 21.9068 9.49078 21.9355C9.28541 21.9641 4.61437 23.1725 4.61437 23.1725Z" fill="#858585"/>
<path id="Vector_2" d="M6.72507 25.2358C6.32387 25.2836 6.14716 25.5224 6.14716 25.9857C6.14716 26.4489 6.08984 29.563 6.08984 29.8782C6.08984 30.1934 6.1185 30.5134 6.58178 30.5421C7.04507 30.5707 9.12268 30.5994 9.38059 30.5707C9.6385 30.5421 9.84387 30.2555 9.87253 29.8782C9.90119 29.5009 9.87253 26.1289 9.87253 25.8663C9.87253 25.403 9.55731 25.2597 9.15134 25.2597C8.74537 25.2597 7.18358 25.1785 6.72507 25.2358Z" fill="#B0B0B0"/>
<path id="Vector_3" d="M49.0706 25.7422L49.1279 22.7715L42.1452 22.8001L42.0879 25.5989L43.8168 27.476H44.8437C44.8055 30.2509 44.6813 38.9578 44.6813 38.9578C44.6813 38.9578 44.2897 39.5166 43.8455 39.9369C43.2676 40.4861 42.3171 41.2073 42.4031 42.9936C42.4843 44.6366 44.1034 45.8783 45.6939 45.8783C47.3942 45.8783 48.55 44.6366 48.6073 43.4569C48.6646 42.2724 48.2013 42.2246 47.9434 42.1864C47.5374 42.1291 47.2222 42.4157 47.1363 42.9363C47.0503 43.4569 46.5297 44.1207 45.6365 43.9154C44.7434 43.71 44.1655 42.7309 44.8867 41.7804C45.4025 41.0975 46.3864 40.8873 46.4724 40.3094C46.5488 39.8127 46.4915 30.1076 46.4771 27.4712H47.5422L49.0706 25.7422Z" fill="#858587"/>
<path id="Vector_4" d="M43.9126 33.1735C43.5543 33.2308 43.4731 33.4792 43.4731 33.8087L43.4779 37.6344C43.4779 37.8541 43.4779 38.0738 43.7836 38.1024C44.0893 38.1311 47.232 38.1311 47.3943 38.1311C47.6427 38.1311 47.7812 37.8254 47.7812 37.4433C47.7812 37.0565 47.8003 33.8326 47.7812 33.6129C47.7525 33.2547 47.423 33.1735 47.146 33.1448C46.869 33.1114 44.1609 33.1353 43.9126 33.1735Z" fill="#F1901B"/>
<path id="Vector_5" d="M35.9741 49.7373H57.2995V53.0472H35.9741V49.7373Z" fill="#AF0C1A"/>
<path id="Vector_6" d="M33.4097 47.6406L33.467 50.2054C33.467 50.2054 59.4395 50.3439 59.4682 50.2627C59.4968 50.1815 59.5255 47.8364 59.4109 47.7791C59.301 47.7218 33.4097 47.6406 33.4097 47.6406ZM33.4097 52.0776V54.6138L59.5207 54.6424C59.5207 54.6424 59.578 52.1875 59.4921 52.1875C59.4109 52.1923 33.4097 52.0776 33.4097 52.0776Z" fill="#DC0D2A"/>
<path id="Vector_7" d="M40.3302 47.1441C39.781 47.3972 39.8574 47.8318 39.8621 48.276C39.8812 50.2151 39.972 54.6187 39.972 54.6187C39.972 54.6187 40.1009 55.2539 40.9368 55.2539C41.935 55.2539 42.0114 54.59 42.0114 54.59V47.999L45.7798 44.8754L50.7804 48.5482C50.7804 48.5482 50.9189 54.2557 50.9189 54.5852C50.9189 54.9148 51.2484 55.359 52.0221 55.3303C52.9057 55.2969 53.0156 54.5852 53.0156 54.5852C53.0156 54.5852 52.9821 48.4718 52.9535 47.9655C52.9057 47.2109 51.7738 47.2252 51.7738 47.2252C51.7738 47.2252 46.2574 42.836 45.7607 42.8121C45.2114 42.7882 40.7123 46.9673 40.3302 47.1441Z" fill="#FF510F"/>
<path id="Vector_8" d="M59.788 21.873C59.5301 21.6008 52.1845 14.3984 51.831 14.3984H25.2567C25.2567 14.3984 21.0012 8.01748 20.4567 7.22942C19.8453 6.34107 19.2961 6.2933 18.7421 7.20554C18.5176 7.57808 14.4245 14.3506 14.4245 14.3506C14.4245 14.3506 3.63042 14.4891 3.00953 14.4414C2.38863 14.3984 2.21191 14.7088 2.21191 14.9715C2.21191 15.239 2.21191 23.6832 2.34565 23.7691C2.47938 23.8551 13.3116 23.8121 13.3116 23.8121L13.2209 56.0032C13.2209 56.0032 12.2561 56.0223 11.5922 56.0223C10.9283 56.0223 10.5606 56.0318 10.5653 56.5381C10.5653 56.8055 10.5558 57.9518 10.5653 58.353C10.5845 59.1172 10.5033 59.5088 11.0095 59.5041C11.4537 59.4993 26.5319 59.5041 27.3725 59.5041C28.2131 59.5041 28.2131 58.9739 28.2131 58.7064V56.5858C28.2131 56.1464 27.8167 55.9649 27.5062 55.9649H25.6053V31.5112C25.6053 31.5112 27.2436 31.602 29.0107 31.3345C30.7779 31.067 31.351 29.1088 31.6615 27.6951C31.9719 26.2814 31.8859 23.7023 31.8859 23.7023C31.8859 23.7023 59.2531 23.7739 59.831 23.5542C60.4042 23.3297 60.5761 22.7184 59.788 21.873ZM4.82923 16.6432H8.02923L4.82923 20.2157V16.6432ZM6.57729 20.7172L9.04176 17.9232L11.9934 20.7172H6.57729ZM13.4549 19.9291L10.1355 16.6432H13.4549V19.9291ZM22.8352 46.5178L19.4728 49.9184L16.0913 46.5178H22.8352ZM16.9271 44.9273L19.5731 42.1954L22.2907 44.8939L16.9271 44.9273ZM19.3725 29.319L15.5612 25.7321H22.8925L19.3725 29.319ZM23.6901 27.4658V33.3882L20.6477 30.5226L23.6901 27.4658ZM22.5009 34.9405H16.2585L19.3486 31.8312L22.5009 34.9405ZM23.6901 37.7249V43.7333L20.7433 40.8629L23.6901 37.7249ZM22.3385 36.5023L19.4298 39.6927L16.3301 36.5596L22.3385 36.5023ZM23.9337 21.7202H17.1946L23.9385 17.8133V21.7202H23.9337ZM19.5301 9.71778C19.5301 9.71778 22.5677 14.1261 22.4913 14.2742C22.4531 14.3506 20.9056 14.2933 19.4346 14.2838C18.0495 14.279 16.7313 14.3267 16.717 14.236C16.6788 14.0545 19.5301 9.71778 19.5301 9.71778ZM15.5277 16.6097H22.3767L15.4991 20.7602L15.5277 16.6097ZM15.2364 27.7715L18.1068 30.6085L15.2364 33.5315V27.7715ZM15.2364 37.9112L18.188 40.8867L15.2555 43.9817L15.2364 37.9112ZM15.2364 48.242L18.2024 51.2079L15.2364 54.2073V48.242ZM16.0913 56.0366L19.4919 52.4975L22.9642 55.9697C21.4119 55.965 17.7582 56.0127 16.0913 56.0366ZM23.6901 54.1643L20.7385 51.1936L23.6901 48.1226V54.1643ZM25.7152 21.7202L25.7439 17.4742L29.7845 21.7297C27.3152 21.7202 25.7152 21.7202 25.7152 21.7202ZM31.9289 21.3763L27.1433 16.4903L36.7767 16.4617L31.9289 21.3763ZM34.1021 21.7393L38.7683 17.1733L43.64 21.7632C40.4304 21.7536 37.0489 21.7441 34.1021 21.7393ZM40.4209 16.4521L50.7707 16.4235L45.6603 21.4241L40.4209 16.4521ZM56.1534 21.7918C56.1056 21.7918 52.6334 21.7823 48.0531 21.7727C49.1707 20.6455 51.4537 18.3387 52.3946 17.3882C53.6603 18.673 55.7809 20.8318 56.1152 21.1661C56.5976 21.6438 56.3015 21.7918 56.1534 21.7918Z" fill="#F3911C"/>
<path id="Vector_9" d="M25.5622 23.5883C25.5622 23.5883 25.6004 26.7835 25.524 26.8217C25.4475 26.8599 13.235 26.793 13.0058 26.7166C12.7765 26.6402 12.7813 23.6265 12.8911 23.5883C13.001 23.5501 25.5622 23.5883 25.5622 23.5883Z" fill="#D15116"/>
<path id="Vector_10" d="M27.6543 24.5099L27.6734 27.963L30.711 30.2269C30.711 30.2269 31.437 29.3816 31.7665 27.4998C32.0436 25.9284 31.8907 24.4669 31.8907 24.4669C31.8907 24.4669 27.7021 24.4526 27.6543 24.5099Z" fill="#A7D0D6"/>
</g>
</svg>
