<svg width="24" height="24" viewBox="0 0 24 24" fill="none" xmlns="http://www.w3.org/2000/svg">
<g id="Menu">
<path id="Vector" fill-rule="evenodd" clip-rule="evenodd" d="M3.6001 6.00005C3.6001 5.68179 3.72653 5.37656 3.95157 5.15152C4.17661 4.92648 4.48184 4.80005 4.8001 4.80005H19.2001C19.5184 4.80005 19.8236 4.92648 20.0486 5.15152C20.2737 5.37656 20.4001 5.68179 20.4001 6.00005C20.4001 6.31831 20.2737 6.62353 20.0486 6.84858C19.8236 7.07362 19.5184 7.20005 19.2001 7.20005H4.8001C4.48184 7.20005 4.17661 7.07362 3.95157 6.84858C3.72653 6.62353 3.6001 6.31831 3.6001 6.00005ZM3.6001 12C3.6001 11.6818 3.72653 11.3766 3.95157 11.1515C4.17661 10.9265 4.48184 10.8 4.8001 10.8H19.2001C19.5184 10.8 19.8236 10.9265 20.0486 11.1515C20.2737 11.3766 20.4001 11.6818 20.4001 12C20.4001 12.3183 20.2737 12.6235 20.0486 12.8486C19.8236 13.0736 19.5184 13.2 19.2001 13.2H4.8001C4.48184 13.2 4.17661 13.0736 3.95157 12.8486C3.72653 12.6235 3.6001 12.3183 3.6001 12ZM3.6001 18C3.6001 17.6818 3.72653 17.3766 3.95157 17.1515C4.17661 16.9265 4.48184 16.8 4.8001 16.8H19.2001C19.5184 16.8 19.8236 16.9265 20.0486 17.1515C20.2737 17.3766 20.4001 17.6818 20.4001 18C20.4001 18.3183 20.2737 18.6235 20.0486 18.8486C19.8236 19.0736 19.5184 19.2 19.2001 19.2H4.8001C4.48184 19.2 4.17661 19.0736 3.95157 18.8486C3.72653 18.6235 3.6001 18.3183 3.6001 18Z" fill="white"/>
</g>
</svg>
